# xmcd CD database file
#
# Track frame offsets:
#	150
#	14168
#	27676
#	41427
#	53127
#	69337
#	81174
#	92797
#	102154
#	116014
#
# Disc length: 1721 seconds
#
# Revision: 0
# Processed by: cddbd v1.5.2PL0 Copyright (c) Steve Scherf et al.
# Submitted via: CDex 1.70beta2
#
DISCID=8306b70a
DTITLE=Paycheck, Johnny - USA - Cty - Everybody's Got A Family
DYEAR=1900
DGENRE=Country
TTITLE0=The Cocain Train
TTITLE1=Ragged old Truck
TTITLE2=Drinkin and Drivin 
TTITLE3=Who was that Man that Beat me so
TTITLE4=Billy Bardo
TTITLE5=Fifteen Beers
TTITLE6=Low class reunion
TTITLE7=I never met a girl I didn't like
TTITLE8=Save your heart for me
TTITLE9=Roll in my sweet baby's arms
EXTD=
EXTT0=
EXTT1=
EXTT2=
EXTT3=
EXTT4=
EXTT5=
EXTT6=
EXTT7=
EXTT8=
EXTT9=
PLAYORDER=
